# xmcd CD database file
#
# Track frame offsets:
#	150
#	10797
#	20946
#	36427
#	49780
#	57578
#	73978
#	89011
#	96970
#
# Disc length: 1439 seconds
#
# Revision: 0
# Processed by: cddbd v1.5.2PL0 Copyright (c) Steve Scherf et al.
# Submitted via: CDex 1.51
#
DISCID=85059d09
DTITLE=Hot Ron Scorcher - For Remy
DYEAR=2007
DGENRE=Country
TTITLE0=Cold Kitchen
TTITLE1=Pissin' In the River
TTITLE2=Left Handed Woman
TTITLE3=15 Dollars
TTITLE4=You Get My Note?
TTITLE5=Just Lucky I Guess
TTITLE6=Leanin'
TTITLE7='55 vs. Judge
TTITLE8=Fast Freddie
EXTD=YEAR: 2007
EXTT0=
EXTT1=
EXTT2=
EXTT3=
EXTT4=
EXTT5=
EXTT6=
EXTT7=
EXTT8=
PLAYORDER=
